<svg xmlns="http://www.w3.org/2000/svg" viewBox="0 0 300 130" width="300" height="130">
  <defs>
    <filter id="ds" x="-20%" y="-20%" width="140%" height="150%">
      <feDropShadow dx="0" dy="6" stdDeviation="6" flood-color="#000" flood-opacity="0.5"/>
    </filter>
    <linearGradient id="body" x1="0" y1="0" x2="0" y2="1">
      <stop offset="0" stop-color="#f0413f"/><stop offset="1" stop-color="#c62026"/>
    </linearGradient>
  </defs>
  <g filter="url(#ds)" transform="translate(20 12)">
    <rect x="128" y="34" width="118" height="42" rx="6" fill="#1c2b52" stroke="#0d1526" stroke-width="2"/>
    <path d="M8 76 L8 34 C8 12 24 -2 50 -2 L86 -2 C108 -2 126 12 126 34 L126 76 Z" fill="url(#body)" stroke="#8a1a1f" stroke-width="2"/>
    <path d="M26 34 L38 12 L86 12 L104 34 Z" fill="#0a1130" opacity=".9"/>
    <line x1="62" y1="12" x2="62" y2="34" stroke="#8a1a1f" stroke-width="2"/>
    <rect x="4" y="74" width="244" height="14" rx="6" fill="#0a1130"/>
    <circle cx="48" cy="92" r="20" fill="#0a1130" stroke="#39508f" stroke-width="4"/><circle cx="48" cy="92" r="7" fill="#4a5f96"/>
    <circle cx="208" cy="92" r="20" fill="#0a1130" stroke="#39508f" stroke-width="4"/><circle cx="208" cy="92" r="7" fill="#4a5f96"/>
  </g>
</svg>
